<mxfile host="app.diagrams.net" modified="2023-10-18T17:21:28.134Z" agent="Mozilla/5.0 (Windows NT 10.0; Win64; x64) AppleWebKit/537.36 (KHTML, like Gecko) Chrome/118.0.0.0 Safari/537.36" etag="QRRJicGHd9nlNvUl_JrO" version="22.0.4" type="device">
  <diagram name="1 oldal" id="bGGW9LVMaBbcMeBo5Vpa">
    <mxGraphModel dx="678" dy="747" grid="1" gridSize="10" guides="1" tooltips="1" connect="1" arrows="1" fold="1" page="1" pageScale="1" pageWidth="827" pageHeight="1169" background="none" math="0" shadow="0">
      <root>
        <mxCell id="0" />
        <mxCell id="1" parent="0" />
        <mxCell id="Qd6E1CuHbQg4oLI-aaTd-10" value="" style="edgeStyle=orthogonalEdgeStyle;rounded=0;orthogonalLoop=1;jettySize=auto;html=1;" edge="1" parent="1" source="_6Zxm_TDM7S5cyln_5-_-23" target="Qd6E1CuHbQg4oLI-aaTd-9">
          <mxGeometry relative="1" as="geometry" />
        </mxCell>
        <mxCell id="Qd6E1CuHbQg4oLI-aaTd-60" value="" style="edgeStyle=orthogonalEdgeStyle;rounded=0;orthogonalLoop=1;jettySize=auto;html=1;" edge="1" parent="1" source="_6Zxm_TDM7S5cyln_5-_-23" target="Qd6E1CuHbQg4oLI-aaTd-59">
          <mxGeometry relative="1" as="geometry" />
        </mxCell>
        <mxCell id="_6Zxm_TDM7S5cyln_5-_-23" value="Város" style="rounded=1;whiteSpace=wrap;html=1;" parent="1" vertex="1">
          <mxGeometry x="90" y="85" width="60" height="25" as="geometry" />
        </mxCell>
        <mxCell id="_6Zxm_TDM7S5cyln_5-_-36" value="" style="edgeStyle=orthogonalEdgeStyle;rounded=0;orthogonalLoop=1;jettySize=auto;html=1;" parent="1" source="_6Zxm_TDM7S5cyln_5-_-27" target="_6Zxm_TDM7S5cyln_5-_-35" edge="1">
          <mxGeometry relative="1" as="geometry" />
        </mxCell>
        <mxCell id="_6Zxm_TDM7S5cyln_5-_-38" value="" style="edgeStyle=orthogonalEdgeStyle;rounded=0;orthogonalLoop=1;jettySize=auto;html=1;" parent="1" source="_6Zxm_TDM7S5cyln_5-_-27" target="_6Zxm_TDM7S5cyln_5-_-37" edge="1">
          <mxGeometry relative="1" as="geometry" />
        </mxCell>
        <mxCell id="_6Zxm_TDM7S5cyln_5-_-42" value="" style="edgeStyle=orthogonalEdgeStyle;rounded=0;orthogonalLoop=1;jettySize=auto;html=1;" parent="1" source="_6Zxm_TDM7S5cyln_5-_-27" target="_6Zxm_TDM7S5cyln_5-_-41" edge="1">
          <mxGeometry relative="1" as="geometry" />
        </mxCell>
        <mxCell id="_6Zxm_TDM7S5cyln_5-_-55" value="" style="edgeStyle=orthogonalEdgeStyle;rounded=0;orthogonalLoop=1;jettySize=auto;html=1;" parent="1" source="_6Zxm_TDM7S5cyln_5-_-27" target="_6Zxm_TDM7S5cyln_5-_-54" edge="1">
          <mxGeometry relative="1" as="geometry" />
        </mxCell>
        <mxCell id="_6Zxm_TDM7S5cyln_5-_-62" value="" style="edgeStyle=orthogonalEdgeStyle;rounded=0;orthogonalLoop=1;jettySize=auto;html=1;" parent="1" source="_6Zxm_TDM7S5cyln_5-_-27" target="_6Zxm_TDM7S5cyln_5-_-61" edge="1">
          <mxGeometry relative="1" as="geometry" />
        </mxCell>
        <mxCell id="_6Zxm_TDM7S5cyln_5-_-66" value="" style="edgeStyle=orthogonalEdgeStyle;rounded=0;orthogonalLoop=1;jettySize=auto;html=1;" parent="1" source="_6Zxm_TDM7S5cyln_5-_-27" target="_6Zxm_TDM7S5cyln_5-_-65" edge="1">
          <mxGeometry relative="1" as="geometry" />
        </mxCell>
        <mxCell id="_6Zxm_TDM7S5cyln_5-_-75" value="" style="edgeStyle=orthogonalEdgeStyle;rounded=0;orthogonalLoop=1;jettySize=auto;html=1;" parent="1" source="_6Zxm_TDM7S5cyln_5-_-27" target="_6Zxm_TDM7S5cyln_5-_-74" edge="1">
          <mxGeometry relative="1" as="geometry" />
        </mxCell>
        <mxCell id="_6Zxm_TDM7S5cyln_5-_-77" value="" style="edgeStyle=orthogonalEdgeStyle;rounded=0;orthogonalLoop=1;jettySize=auto;html=1;" parent="1" source="_6Zxm_TDM7S5cyln_5-_-27" target="_6Zxm_TDM7S5cyln_5-_-76" edge="1">
          <mxGeometry relative="1" as="geometry" />
        </mxCell>
        <mxCell id="_6Zxm_TDM7S5cyln_5-_-27" value="Vár" style="rounded=1;whiteSpace=wrap;html=1;" parent="1" vertex="1">
          <mxGeometry x="334" y="81.25" width="80" height="32.5" as="geometry" />
        </mxCell>
        <mxCell id="_6Zxm_TDM7S5cyln_5-_-60" value="" style="edgeStyle=orthogonalEdgeStyle;rounded=0;orthogonalLoop=1;jettySize=auto;html=1;" parent="1" source="_6Zxm_TDM7S5cyln_5-_-35" target="_6Zxm_TDM7S5cyln_5-_-59" edge="1">
          <mxGeometry relative="1" as="geometry" />
        </mxCell>
        <mxCell id="_6Zxm_TDM7S5cyln_5-_-35" value="Szállás" style="whiteSpace=wrap;html=1;rounded=1;" parent="1" vertex="1">
          <mxGeometry x="440" y="20" width="55" height="22.5" as="geometry" />
        </mxCell>
        <mxCell id="_6Zxm_TDM7S5cyln_5-_-37" value="Kaszinó" style="whiteSpace=wrap;html=1;rounded=1;" parent="1" vertex="1">
          <mxGeometry x="530" y="20" width="60" height="20" as="geometry" />
        </mxCell>
        <mxCell id="_6Zxm_TDM7S5cyln_5-_-41" value="Kincstár" style="rounded=1;whiteSpace=wrap;html=1;" parent="1" vertex="1">
          <mxGeometry x="630" y="20" width="50" height="20" as="geometry" />
        </mxCell>
        <mxCell id="_6Zxm_TDM7S5cyln_5-_-49" value="" style="endArrow=classic;html=1;rounded=0;entryX=1;entryY=0.5;entryDx=0;entryDy=0;exitX=0;exitY=0.5;exitDx=0;exitDy=0;" parent="1" source="_6Zxm_TDM7S5cyln_5-_-27" target="_6Zxm_TDM7S5cyln_5-_-23" edge="1">
          <mxGeometry width="50" height="50" relative="1" as="geometry">
            <mxPoint x="390" y="300" as="sourcePoint" />
            <mxPoint x="440" y="250" as="targetPoint" />
          </mxGeometry>
        </mxCell>
        <mxCell id="Qd6E1CuHbQg4oLI-aaTd-6" value="" style="edgeStyle=orthogonalEdgeStyle;rounded=0;orthogonalLoop=1;jettySize=auto;html=1;" edge="1" parent="1" source="_6Zxm_TDM7S5cyln_5-_-52" target="Qd6E1CuHbQg4oLI-aaTd-5">
          <mxGeometry relative="1" as="geometry" />
        </mxCell>
        <mxCell id="_6Zxm_TDM7S5cyln_5-_-52" value="Árus" style="rounded=1;whiteSpace=wrap;html=1;" parent="1" vertex="1">
          <mxGeometry x="180" y="160" width="60" height="20" as="geometry" />
        </mxCell>
        <mxCell id="_6Zxm_TDM7S5cyln_5-_-54" value="Kereskedőház" style="rounded=1;whiteSpace=wrap;html=1;" parent="1" vertex="1">
          <mxGeometry x="710" y="20" width="90" height="20" as="geometry" />
        </mxCell>
        <mxCell id="_6Zxm_TDM7S5cyln_5-_-59" value="Konyha" style="whiteSpace=wrap;html=1;rounded=1;" parent="1" vertex="1">
          <mxGeometry x="350" y="20.63" width="52.5" height="21.25" as="geometry" />
        </mxCell>
        <mxCell id="_6Zxm_TDM7S5cyln_5-_-61" value="Edzőterem" style="rounded=1;whiteSpace=wrap;html=1;" parent="1" vertex="1">
          <mxGeometry x="450" y="150" width="67.5" height="20" as="geometry" />
        </mxCell>
        <mxCell id="_6Zxm_TDM7S5cyln_5-_-65" value="Lovagi torna (várkert)" style="rounded=1;whiteSpace=wrap;html=1;" parent="1" vertex="1">
          <mxGeometry x="560" y="145" width="85" height="30" as="geometry" />
        </mxCell>
        <mxCell id="_6Zxm_TDM7S5cyln_5-_-68" value="Kard a kőben (quest)" style="ellipse;whiteSpace=wrap;html=1;" parent="1" vertex="1">
          <mxGeometry x="280" y="220" width="80" height="40" as="geometry" />
        </mxCell>
        <mxCell id="_6Zxm_TDM7S5cyln_5-_-74" value="Gyógyítás" style="rounded=1;whiteSpace=wrap;html=1;" parent="1" vertex="1">
          <mxGeometry x="670" y="150" width="60" height="20" as="geometry" />
        </mxCell>
        <mxCell id="_6Zxm_TDM7S5cyln_5-_-76" value="Küldetésfal" style="whiteSpace=wrap;html=1;rounded=1;" parent="1" vertex="1">
          <mxGeometry x="764" y="150" width="63" height="20" as="geometry" />
        </mxCell>
        <mxCell id="Qd6E1CuHbQg4oLI-aaTd-5" value="Szikla" style="rounded=1;whiteSpace=wrap;html=1;" vertex="1" parent="1">
          <mxGeometry x="280" y="160" width="60" height="20" as="geometry" />
        </mxCell>
        <mxCell id="Qd6E1CuHbQg4oLI-aaTd-8" value="" style="endArrow=none;dashed=1;html=1;rounded=0;exitX=0.75;exitY=1;exitDx=0;exitDy=0;entryX=0.5;entryY=0;entryDx=0;entryDy=0;" edge="1" parent="1" source="Qd6E1CuHbQg4oLI-aaTd-5" target="_6Zxm_TDM7S5cyln_5-_-68">
          <mxGeometry width="50" height="50" relative="1" as="geometry">
            <mxPoint x="280" y="290" as="sourcePoint" />
            <mxPoint x="330" y="240" as="targetPoint" />
          </mxGeometry>
        </mxCell>
        <mxCell id="Qd6E1CuHbQg4oLI-aaTd-22" value="" style="edgeStyle=orthogonalEdgeStyle;rounded=0;orthogonalLoop=1;jettySize=auto;html=1;" edge="1" parent="1" source="Qd6E1CuHbQg4oLI-aaTd-9" target="Qd6E1CuHbQg4oLI-aaTd-21">
          <mxGeometry relative="1" as="geometry" />
        </mxCell>
        <mxCell id="Qd6E1CuHbQg4oLI-aaTd-24" value="" style="edgeStyle=orthogonalEdgeStyle;rounded=0;orthogonalLoop=1;jettySize=auto;html=1;" edge="1" parent="1" source="Qd6E1CuHbQg4oLI-aaTd-9" target="Qd6E1CuHbQg4oLI-aaTd-23">
          <mxGeometry relative="1" as="geometry" />
        </mxCell>
        <mxCell id="Qd6E1CuHbQg4oLI-aaTd-9" value="Mező" style="rounded=1;whiteSpace=wrap;html=1;" vertex="1" parent="1">
          <mxGeometry x="90" y="660" width="60" height="40" as="geometry" />
        </mxCell>
        <mxCell id="Qd6E1CuHbQg4oLI-aaTd-11" value="" style="endArrow=classic;html=1;rounded=0;entryX=0;entryY=0.5;entryDx=0;entryDy=0;exitX=0.495;exitY=1.126;exitDx=0;exitDy=0;exitPerimeter=0;" edge="1" parent="1" source="_6Zxm_TDM7S5cyln_5-_-23" target="_6Zxm_TDM7S5cyln_5-_-52">
          <mxGeometry width="50" height="50" relative="1" as="geometry">
            <mxPoint x="120" y="170" as="sourcePoint" />
            <mxPoint x="220" y="220" as="targetPoint" />
            <Array as="points">
              <mxPoint x="120" y="170" />
            </Array>
          </mxGeometry>
        </mxCell>
        <mxCell id="Qd6E1CuHbQg4oLI-aaTd-17" value="Koldus" style="rounded=1;whiteSpace=wrap;html=1;" vertex="1" parent="1">
          <mxGeometry x="170" y="250" width="60" height="20" as="geometry" />
        </mxCell>
        <mxCell id="Qd6E1CuHbQg4oLI-aaTd-20" value="" style="endArrow=classic;html=1;rounded=0;exitX=0.5;exitY=1;exitDx=0;exitDy=0;entryX=0;entryY=0.5;entryDx=0;entryDy=0;" edge="1" parent="1" source="_6Zxm_TDM7S5cyln_5-_-23" target="Qd6E1CuHbQg4oLI-aaTd-17">
          <mxGeometry width="50" height="50" relative="1" as="geometry">
            <mxPoint x="210" y="230" as="sourcePoint" />
            <mxPoint x="260" y="180" as="targetPoint" />
            <Array as="points">
              <mxPoint x="120" y="260" />
            </Array>
          </mxGeometry>
        </mxCell>
        <mxCell id="Qd6E1CuHbQg4oLI-aaTd-21" value="Vadászház" style="rounded=1;whiteSpace=wrap;html=1;" vertex="1" parent="1">
          <mxGeometry x="180" y="670" width="70" height="20" as="geometry" />
        </mxCell>
        <mxCell id="Qd6E1CuHbQg4oLI-aaTd-34" value="" style="edgeStyle=orthogonalEdgeStyle;rounded=0;orthogonalLoop=1;jettySize=auto;html=1;" edge="1" parent="1" source="Qd6E1CuHbQg4oLI-aaTd-23" target="Qd6E1CuHbQg4oLI-aaTd-33">
          <mxGeometry relative="1" as="geometry" />
        </mxCell>
        <mxCell id="Qd6E1CuHbQg4oLI-aaTd-57" value="" style="edgeStyle=orthogonalEdgeStyle;rounded=0;orthogonalLoop=1;jettySize=auto;html=1;" edge="1" parent="1" source="Qd6E1CuHbQg4oLI-aaTd-23" target="Qd6E1CuHbQg4oLI-aaTd-56">
          <mxGeometry relative="1" as="geometry" />
        </mxCell>
        <mxCell id="Qd6E1CuHbQg4oLI-aaTd-23" value="Erdő" style="rounded=1;whiteSpace=wrap;html=1;" vertex="1" parent="1">
          <mxGeometry x="90" y="780" width="60" height="40" as="geometry" />
        </mxCell>
        <mxCell id="Qd6E1CuHbQg4oLI-aaTd-28" value="Ogrevadészat" style="ellipse;whiteSpace=wrap;html=1;rounded=1;" vertex="1" parent="1">
          <mxGeometry x="180" y="720" width="90" height="22.5" as="geometry" />
        </mxCell>
        <mxCell id="Qd6E1CuHbQg4oLI-aaTd-32" value="" style="endArrow=none;dashed=1;html=1;rounded=0;entryX=0.664;entryY=1.071;entryDx=0;entryDy=0;entryPerimeter=0;" edge="1" parent="1" source="Qd6E1CuHbQg4oLI-aaTd-28" target="Qd6E1CuHbQg4oLI-aaTd-21">
          <mxGeometry width="50" height="50" relative="1" as="geometry">
            <mxPoint x="290" y="730" as="sourcePoint" />
            <mxPoint x="340" y="680" as="targetPoint" />
          </mxGeometry>
        </mxCell>
        <mxCell id="Qd6E1CuHbQg4oLI-aaTd-33" value="Kazamata" style="whiteSpace=wrap;html=1;rounded=1;" vertex="1" parent="1">
          <mxGeometry x="195" y="787.5" width="60" height="25" as="geometry" />
        </mxCell>
        <mxCell id="Qd6E1CuHbQg4oLI-aaTd-36" value="" style="endArrow=none;dashed=1;html=1;rounded=0;exitX=0.5;exitY=1;exitDx=0;exitDy=0;entryX=0.5;entryY=0;entryDx=0;entryDy=0;" edge="1" parent="1" source="Qd6E1CuHbQg4oLI-aaTd-28" target="Qd6E1CuHbQg4oLI-aaTd-33">
          <mxGeometry width="50" height="50" relative="1" as="geometry">
            <mxPoint x="260" y="760" as="sourcePoint" />
            <mxPoint x="310" y="710" as="targetPoint" />
          </mxGeometry>
        </mxCell>
        <mxCell id="Qd6E1CuHbQg4oLI-aaTd-40" value="" style="edgeStyle=orthogonalEdgeStyle;rounded=0;orthogonalLoop=1;jettySize=auto;html=1;" edge="1" parent="1" source="Qd6E1CuHbQg4oLI-aaTd-37" target="Qd6E1CuHbQg4oLI-aaTd-39">
          <mxGeometry relative="1" as="geometry" />
        </mxCell>
        <mxCell id="Qd6E1CuHbQg4oLI-aaTd-37" value="Hegység" style="whiteSpace=wrap;html=1;rounded=1;" vertex="1" parent="1">
          <mxGeometry x="100" y="1090" width="120" height="60" as="geometry" />
        </mxCell>
        <mxCell id="Qd6E1CuHbQg4oLI-aaTd-42" value="" style="edgeStyle=orthogonalEdgeStyle;rounded=0;orthogonalLoop=1;jettySize=auto;html=1;" edge="1" parent="1" source="Qd6E1CuHbQg4oLI-aaTd-39" target="Qd6E1CuHbQg4oLI-aaTd-41">
          <mxGeometry relative="1" as="geometry" />
        </mxCell>
        <mxCell id="Qd6E1CuHbQg4oLI-aaTd-39" value="Figyelmeztetés" style="whiteSpace=wrap;html=1;rounded=1;" vertex="1" parent="1">
          <mxGeometry x="270" y="1107.5" width="100" height="25" as="geometry" />
        </mxCell>
        <mxCell id="Qd6E1CuHbQg4oLI-aaTd-41" value="Sárkányharc" style="whiteSpace=wrap;html=1;rounded=1;" vertex="1" parent="1">
          <mxGeometry x="670" y="1090" width="120" height="60" as="geometry" />
        </mxCell>
        <mxCell id="Qd6E1CuHbQg4oLI-aaTd-45" value="" style="endArrow=classic;html=1;rounded=0;exitX=1;exitY=0.5;exitDx=0;exitDy=0;entryX=0.598;entryY=0.036;entryDx=0;entryDy=0;entryPerimeter=0;" edge="1" parent="1" source="Qd6E1CuHbQg4oLI-aaTd-23" target="Qd6E1CuHbQg4oLI-aaTd-37">
          <mxGeometry width="50" height="50" relative="1" as="geometry">
            <mxPoint x="250" y="980" as="sourcePoint" />
            <mxPoint x="170" y="1060" as="targetPoint" />
            <Array as="points">
              <mxPoint x="170" y="800" />
            </Array>
          </mxGeometry>
        </mxCell>
        <mxCell id="Qd6E1CuHbQg4oLI-aaTd-53" value="Vadászat" style="ellipse;whiteSpace=wrap;html=1;" vertex="1" parent="1">
          <mxGeometry x="220" y="585" width="60" height="30" as="geometry" />
        </mxCell>
        <mxCell id="Qd6E1CuHbQg4oLI-aaTd-54" value="" style="endArrow=none;dashed=1;html=1;rounded=0;exitX=0.5;exitY=0;exitDx=0;exitDy=0;entryX=0;entryY=1;entryDx=0;entryDy=0;" edge="1" parent="1" source="Qd6E1CuHbQg4oLI-aaTd-21" target="Qd6E1CuHbQg4oLI-aaTd-53">
          <mxGeometry width="50" height="50" relative="1" as="geometry">
            <mxPoint x="240" y="670" as="sourcePoint" />
            <mxPoint x="290" y="620" as="targetPoint" />
          </mxGeometry>
        </mxCell>
        <mxCell id="Qd6E1CuHbQg4oLI-aaTd-55" value="" style="endArrow=none;dashed=1;html=1;rounded=0;entryX=0;entryY=0.5;entryDx=0;entryDy=0;exitX=1;exitY=0;exitDx=0;exitDy=0;" edge="1" parent="1" source="Qd6E1CuHbQg4oLI-aaTd-9" target="Qd6E1CuHbQg4oLI-aaTd-53">
          <mxGeometry width="50" height="50" relative="1" as="geometry">
            <mxPoint x="330" y="770" as="sourcePoint" />
            <mxPoint x="380" y="720" as="targetPoint" />
          </mxGeometry>
        </mxCell>
        <mxCell id="Qd6E1CuHbQg4oLI-aaTd-56" value="Város elhagyása" style="rounded=1;whiteSpace=wrap;html=1;" vertex="1" parent="1">
          <mxGeometry x="20" y="960" width="100" height="20" as="geometry" />
        </mxCell>
        <mxCell id="Qd6E1CuHbQg4oLI-aaTd-59" value="Templom" style="rounded=1;whiteSpace=wrap;html=1;" vertex="1" parent="1">
          <mxGeometry x="150" y="470" width="60" height="25" as="geometry" />
        </mxCell>
      </root>
    </mxGraphModel>
  </diagram>
</mxfile>
